<svg width="180" height="180" viewBox="0 0 180 180" fill="none" xmlns="http://www.w3.org/2000/svg">
<g clip-path="url(#clip0_515_1013)">
<path d="M180 90C180 139.706 139.706 180 90 180C40.2944 180 0 139.706 0 90C0 40.2944 40.2944 0 90 0C139.706 0 180 40.2944 180 90Z" fill="white"/>
<path d="M50.553 43.5563C50.553 42.0016 51.8134 40.7412 53.3681 40.7412H122.691C124.245 40.7412 125.506 42.0016 125.506 43.5563V95.9881C125.506 97.5429 124.245 98.8032 122.691 98.8032H53.3681C51.8134 98.8032 50.553 97.5429 50.553 95.9881V43.5563Z" fill="#2EA950"/>
<path d="M94.3884 54.7112C94.789 53.2161 96.3215 52.3249 97.819 52.7161L145.437 65.1537C146.948 65.5484 147.848 67.0976 147.444 68.6061L133.874 119.251C133.473 120.746 131.941 121.637 130.443 121.246L82.8258 108.809C81.3148 108.414 80.4139 106.865 80.8181 105.356L94.3884 54.7112Z" fill="#EE402F"/>
<path d="M32.8163 72.3488C32.286 70.8873 33.041 69.2726 34.5025 68.7424L99.6689 45.1C101.13 44.5697 102.745 45.3247 103.275 46.7862L121.157 96.0745C121.687 97.536 120.932 99.1507 119.471 99.6809L54.3045 123.323C52.843 123.854 51.2283 123.099 50.6981 121.637L32.8163 72.3488Z" fill="#FEBC03"/>
<g filter="url(#filter0_d_515_1013)">
<path d="M42.4788 73.0359C42.4788 71.1585 44.0008 69.6365 45.8782 69.6365H129.59C131.468 69.6365 132.99 71.1585 132.99 73.0359V136.351C132.99 138.229 131.468 139.751 129.59 139.751H45.8782C44.0008 139.751 42.4788 138.229 42.4788 136.351V73.0359Z" fill="#4081F7"/>
<path d="M91.4927 88.7588H116.989C117.693 88.7588 118.264 89.3295 118.264 90.0336V94.2829C118.264 94.987 117.693 95.5577 116.989 95.5577H91.4927V88.7588Z" fill="white"/>
<path d="M91.4927 101.507H120.813C121.517 101.507 122.088 102.077 122.088 102.781V107.031C122.088 107.735 121.517 108.306 120.813 108.306H91.4927V101.507Z" fill="white"/>
<path d="M91.4927 114.255H116.989C117.693 114.255 118.264 114.825 118.264 115.529V119.779C118.264 120.483 117.693 121.054 116.989 121.054H91.4927V114.255Z" fill="white"/>
<path d="M68.8381 103.409H83.5667C83.6506 103.744 83.7206 104.15 83.7765 104.626C83.8325 105.101 83.8605 105.577 83.8605 106.052C83.8605 107.983 83.5667 109.801 82.9792 111.507C82.3918 113.214 81.4686 114.738 80.2098 116.081C78.867 117.508 77.2584 118.613 75.3841 119.396C73.5098 120.18 71.3698 120.571 68.9639 120.571C66.7819 120.571 64.7258 120.18 62.7955 119.396C60.8653 118.613 59.1868 117.522 57.7601 116.123C56.3334 114.724 55.2004 113.074 54.3612 111.172C53.5219 109.241 53.1023 107.143 53.1023 104.877C53.1023 102.611 53.5219 100.527 54.3612 98.625C55.2004 96.6948 56.3334 95.0303 57.7601 93.6316C59.1868 92.2328 60.8653 91.1418 62.7955 90.3585C64.7258 89.5752 66.7819 89.1836 68.9639 89.1836C71.3977 89.1836 73.5658 89.6032 75.4681 90.4425C77.3983 91.2817 79.0488 92.4426 80.4196 93.9253L76.5171 97.7438C75.538 96.7088 74.447 95.9255 73.2441 95.394C72.0412 94.8345 70.6005 94.5547 68.922 94.5547C67.5512 94.5547 66.2504 94.8065 65.0195 95.31C63.7886 95.7856 62.7116 96.471 61.7884 97.3662C60.8653 98.2614 60.1239 99.3524 59.5644 100.639C59.0329 101.898 58.7672 103.311 58.7672 104.877C58.7672 106.444 59.0329 107.871 59.5644 109.158C60.1239 110.416 60.8653 111.493 61.7884 112.389C62.7396 113.284 63.8306 113.983 65.0615 114.487C66.2924 114.962 67.6072 115.2 69.0059 115.2C70.6005 115.2 71.9432 114.976 73.0343 114.529C74.1532 114.053 75.1044 113.452 75.8877 112.724C76.4472 112.221 76.9227 111.591 77.3144 110.836C77.734 110.053 78.0557 109.185 78.2795 108.234H68.8381V103.409Z" fill="white"/>
</g>
</g>
<defs>
<filter id="filter0_d_515_1013" x="41.7411" y="69.6365" width="92.4782" height="72.0812" filterUnits="userSpaceOnUse" color-interpolation-filters="sRGB">
<feFlood flood-opacity="0" result="BackgroundImageFix"/>
<feColorMatrix in="SourceAlpha" type="matrix" values="0 0 0 0 0 0 0 0 0 0 0 0 0 0 0 0 0 0 127 0" result="hardAlpha"/>
<feOffset dx="0.245902" dy="0.983607"/>
<feGaussianBlur stdDeviation="0.491803"/>
<feComposite in2="hardAlpha" operator="out"/>
<feColorMatrix type="matrix" values="0 0 0 0 0 0 0 0 0 0 0 0 0 0 0 0 0 0 0.15 0"/>
<feBlend mode="normal" in2="BackgroundImageFix" result="effect1_dropShadow_515_1013"/>
<feBlend mode="normal" in="SourceGraphic" in2="effect1_dropShadow_515_1013" result="shape"/>
</filter>
<clipPath id="clip0_515_1013">
<rect width="180" height="180" fill="white"/>
</clipPath>
</defs>
</svg>
