<svg width="180" height="180" viewBox="0 0 180 180" fill="none" xmlns="http://www.w3.org/2000/svg">
<g clip-path="url(#clip0_515_980)">
<path d="M180 90C180 139.706 139.706 180 90 180C40.2944 180 0 139.706 0 90C0 40.2944 40.2944 0 90 0C139.706 0 180 40.2944 180 90Z" fill="white"/>
<path d="M87.1873 31.521C93.4726 26.3351 102.772 27.2263 107.958 33.5115C113.144 39.7967 112.252 49.0959 105.967 54.2818L70.7337 83.3525C64.4485 88.5384 55.1493 87.6472 49.9635 81.362C44.7776 75.0767 45.6688 65.7776 51.954 60.5917L87.1873 31.521Z" fill="#FEBC03"/>
<path d="M82.1309 42.7869C82.1309 34.6385 88.7365 28.0328 96.885 28.0328C105.033 28.0328 111.639 34.6385 111.639 42.7869V143.115C111.639 151.263 105.033 157.869 96.885 157.869C88.7365 157.869 82.1309 151.263 82.1309 143.115V42.7869Z" fill="#4081F7"/>
<path d="M82.1309 143.291C82.1309 151.44 88.7365 158.046 96.885 158.046C105.033 158.046 111.639 151.44 111.639 143.291V136.406L82.1309 112.131V143.291Z" fill="#2EA950"/>
<path d="M82.1309 42.7869C82.1309 34.6385 88.7365 28.0328 96.885 28.0328C105.033 28.0328 111.639 34.6385 111.639 42.7869V49.6722L82.1309 73.9473V42.7869Z" fill="#EE402F"/>
</g>
<defs>
<clipPath id="clip0_515_980">
<rect width="180" height="180" fill="white"/>
</clipPath>
</defs>
</svg>
