<svg width="180" height="180" viewBox="0 0 180 180" fill="none" xmlns="http://www.w3.org/2000/svg">
<g clip-path="url(#clip0_515_1079)">
<path d="M180 90C180 139.706 139.706 180 90 180C40.2944 180 0 139.706 0 90C0 40.2944 40.2944 0 90 0C139.706 0 180 40.2944 180 90Z" fill="white"/>
<path fill-rule="evenodd" clip-rule="evenodd" d="M109.451 137.705C109.455 137.422 109.457 137.138 109.457 136.853C109.457 104.861 83.5219 78.9258 51.5295 78.9258C45.7561 78.9258 40.18 79.7704 34.918 81.3428V102.177C39.9459 99.7637 45.5799 98.4121 51.5295 98.4121C72.7599 98.4121 89.9706 115.623 89.9706 136.853C89.9706 137.138 89.9675 137.422 89.9613 137.705H109.451Z" fill="#2EA950"/>
<path d="M34.918 62.74H144.81V49.9619C144.81 45.7276 141.377 42.295 137.143 42.295H42.5848C38.3505 42.295 34.918 45.7276 34.918 49.9619V62.74Z" fill="#EE402F"/>
<path d="M124.365 137.705L124.365 42.2949L137.143 42.2949C141.377 42.2949 144.81 45.7275 144.81 49.9618L144.81 130.038C144.81 134.272 141.377 137.705 137.143 137.705H124.365Z" fill="#FEBC03"/>
<path d="M34.918 117.26H144.81V130.038C144.81 134.272 141.377 137.705 137.143 137.705H42.5848C38.3505 137.705 34.918 134.272 34.918 130.038V117.26Z" fill="#4081F7"/>
<path d="M55.3629 80.2034L55.3629 42.295L42.5848 42.295C38.3505 42.295 34.918 45.7276 34.918 49.9619L34.918 80.2034H55.3629Z" fill="#EE402F"/>
<path d="M55.3629 137.705L55.3629 79.7773L34.918 79.7773L34.918 130.038C34.918 134.272 38.3505 137.705 42.5848 137.705H55.3629Z" fill="#4081F7"/>
<circle cx="106.049" cy="79.7771" r="11.5003" fill="#FEBC03"/>
</g>
<defs>
<clipPath id="clip0_515_1079">
<rect width="180" height="180" fill="white"/>
</clipPath>
</defs>
</svg>
