<svg width="180" height="180" viewBox="0 0 180 180" fill="none" xmlns="http://www.w3.org/2000/svg">
<g clip-path="url(#clip0_515_1089)">
<path d="M180 90C180 139.706 139.706 180 90 180C40.2944 180 0 139.706 0 90C0 40.2944 40.2944 0 90 0C139.706 0 180 40.2944 180 90Z" fill="white"/>
<path fill-rule="evenodd" clip-rule="evenodd" d="M38.8525 67.7459C38.8525 51.7885 51.7886 38.8524 67.746 38.8524H78.5657V53.3606H67.746C59.8012 53.3606 53.3607 59.8011 53.3607 67.7459V78.5655H38.8525V67.7459Z" fill="#EE402F"/>
<path fill-rule="evenodd" clip-rule="evenodd" d="M140.902 67.7457C140.902 51.7883 127.966 38.8523 112.008 38.8523H101.188V53.3605H112.008C119.953 53.3605 126.393 59.801 126.393 67.7457V78.5654H140.902V67.7457Z" fill="#FEBC03"/>
<path fill-rule="evenodd" clip-rule="evenodd" d="M38.8525 112.008C38.8525 127.966 51.7886 140.902 67.746 140.902H78.5657V126.393H67.746C59.8012 126.393 53.3607 119.953 53.3607 112.008V101.188H38.8525V112.008Z" fill="#4081F7"/>
<circle cx="89.8771" cy="89.8768" r="20.1639" fill="#4081F7"/>
<circle cx="124" cy="124" r="11.5003" fill="#2EA950"/>
</g>
<defs>
<clipPath id="clip0_515_1089">
<rect width="180" height="180" fill="white"/>
</clipPath>
</defs>
</svg>
