<svg width="180" height="180" viewBox="0 0 180 180" fill="none" xmlns="http://www.w3.org/2000/svg">
<g clip-path="url(#clip0_515_1097)">
<path d="M180 90C180 139.706 139.706 180 90 180C40.2944 180 0 139.706 0 90C0 40.2944 40.2944 0 90 0C139.706 0 180 40.2944 180 90Z" fill="white"/>
<path fill-rule="evenodd" clip-rule="evenodd" d="M103.11 31.4755L132.606 60.9719V140.097C132.606 144.752 128.833 148.525 124.179 148.525H55.8218C51.1674 148.525 47.3943 144.752 47.3943 140.097V39.903C47.3943 35.2486 51.1674 31.4755 55.8218 31.4755L103.11 31.4755Z" fill="#2EA950"/>
<path fill-rule="evenodd" clip-rule="evenodd" d="M110.656 84.5902H69.3448V110.656H110.656V84.5902ZM61.9678 77.2131V118.033H118.033V77.2131H61.9678Z" fill="white"/>
<rect x="86.5579" y="77.2131" width="6.88525" height="40.8197" fill="white"/>
<rect x="118.033" y="94.1804" width="6.88525" height="56.0656" transform="rotate(90 118.033 94.1804)" fill="white"/>
<path d="M103.11 31.4756L132.606 60.972H103.11L103.11 31.4756Z" fill="#0D8136"/>
</g>
<defs>
<clipPath id="clip0_515_1097">
<rect width="180" height="180" fill="white"/>
</clipPath>
</defs>
</svg>
