<svg width="180" height="180" viewBox="0 0 180 180" fill="none" xmlns="http://www.w3.org/2000/svg">
<g clip-path="url(#clip0_515_1026)">
<path d="M180 90C180 139.706 139.706 180 90 180C40.2944 180 0 139.706 0 90C0 40.2944 40.2944 0 90 0C139.706 0 180 40.2944 180 90Z" fill="white"/>
<path fill-rule="evenodd" clip-rule="evenodd" d="M66.3744 36.8094C60.0331 38.8735 52.2488 46.823 48.1988 55.3711C45.2121 61.6745 44.3647 65.8337 44.3003 74.5076C44.2162 85.7626 46.2705 93.985 51.9179 104.999C55.9054 112.775 60.4762 119.019 66.8677 125.42C79.7402 138.311 93.9592 144.503 108.883 143.716C117.294 143.272 125.9 139.935 131.843 134.812C134.434 132.578 135.473 130.356 135.47 127.056C135.467 123.604 134.731 122.462 126.91 113.774C119.453 105.49 118.153 104.448 114.885 104.133C110.927 103.753 109.369 104.615 102.158 111.175C97.0236 115.845 95.4454 117.295 95.4454 117.295C93.9046 116.453 85.9428 108.618 82.9039 104.788C78.3818 99.0885 75.3159 94.3863 72.5633 88.9293C70.0443 83.935 67.9044 78.1966 67.9044 78.1966C68.0146 78.0864 71.9284 76.1311 76.24 73.8796C83.3588 70.1621 84.2308 69.5621 85.7249 67.3514C87.2643 65.0744 87.3557 64.7114 87.1438 61.7208C86.9382 58.8127 86.4902 57.7278 82.181 49.7006C77.4228 40.8373 75.8416 38.6045 73.4343 37.3465C71.4626 36.3162 68.5664 36.0958 66.3744 36.8094Z" fill="#84AAFF"/>
<path fill-rule="evenodd" clip-rule="evenodd" d="M108.883 143.716C117.295 143.272 125.9 139.935 131.844 134.812C134.435 132.579 135.474 130.357 135.471 127.057C135.467 123.605 134.731 122.462 126.911 113.775C119.453 105.49 118.153 104.448 114.885 104.134C110.928 103.754 109.369 104.616 102.158 111.175C97.0241 115.846 95.4459 117.295 95.4459 117.295C95.4459 117.295 85.3636 133.525 108.883 143.716Z" fill="#5A8EFE"/>
<path fill-rule="evenodd" clip-rule="evenodd" d="M66.3688 36.8094C60.0275 38.8735 58.4302 42.1076 54.3802 50.6556C51.3935 56.959 54.3797 69.59 66.187 78.6884L76.2344 73.8796C83.3532 70.1621 84.2252 69.5621 85.7193 67.3514C87.2586 65.0744 87.3501 64.7114 87.1381 61.7208C86.9326 58.8127 86.4845 57.7278 82.1754 49.7006C77.4172 40.8373 75.836 38.6045 73.4286 37.3465C71.457 36.3162 68.5607 36.0958 66.3688 36.8094Z" fill="#5A8EFE"/>
<path fill-rule="evenodd" clip-rule="evenodd" d="M57.0842 43.0307C48.488 51.1401 43.8059 61.9671 44.2974 75.4917C44.2974 85.1969 46.5236 93.9535 51.6506 104.26C59.2087 119.455 71.8456 132.36 85.6427 138.934C97.0515 144.371 107.721 145.324 118.068 142.131C123.579 140.431 131.803 136.229 127.167 137.213C126.007 137.459 120.431 136.915 108.177 127.44C104.661 124.721 100.872 121.71 99.7578 120.749L95.4449 117.293L92.0951 120.296C90.391 121.755 88.7006 123.228 88.3392 123.57C87.8041 124.077 87.3029 123.895 85.6426 122.587C80.8564 118.818 74.3592 111.334 69.0752 103.503C63.7603 95.6252 58.6057 83.9803 59.7979 82.5437C61.4951 80.5009 65.594 79.5822 67.9039 78.1947C67.9039 78.1947 66.9142 74.727 66.0865 72.2926C65.2588 69.8581 63.2523 63.5507 61.6279 58.2762C58.3588 47.6616 59.2622 45.7376 60.2316 41.7919C60.5201 40.618 60.9252 39.8359 60.7728 39.8359C60.6208 39.8359 58.989 41.2337 57.0842 43.0307Z" fill="#0059CF"/>
</g>
<defs>
<clipPath id="clip0_515_1026">
<rect width="180" height="180" fill="white"/>
</clipPath>
</defs>
</svg>
