<svg width="180" height="180" viewBox="0 0 180 180" fill="none" xmlns="http://www.w3.org/2000/svg">
<g clip-path="url(#clip0_515_1033)">
<path d="M180 90C180 139.706 139.706 180 90 180C40.2944 180 0 139.706 0 90C0 40.2944 40.2944 0 90 0C139.706 0 180 40.2944 180 90Z" fill="white"/>
<path d="M90.0002 90.0126C110.902 90.0126 124.918 76.8256 124.918 58.2913C124.918 40.8086 112.182 27.3856 92.8869 26.5943C91.2856 26.5286 90.0002 27.8496 90.0002 29.4522L90.0002 90.0126Z" fill="#EE402F"/>
<path d="M90.013 90.0126C90.013 69.111 76.826 55.0946 58.2917 55.0946C40.809 55.0946 27.386 67.8306 26.5946 87.1259C26.529 88.7272 27.8499 90.0126 29.4526 90.0126H90.013Z" fill="#FEBC03"/>
<path d="M90.0003 89.9996C69.0987 89.9996 55.0823 103.187 55.0823 121.721C55.0823 139.204 67.8183 152.627 87.1136 153.418C88.7149 153.484 90.0003 152.163 90.0003 150.56V89.9996Z" fill="#2EA950"/>
<path d="M90.0002 89.9996C90.0002 110.901 103.187 124.918 121.722 124.918C139.204 124.918 152.627 112.182 153.419 92.8863C153.484 91.285 152.163 89.9996 150.561 89.9996H90.0002Z" fill="#4081F7"/>
</g>
<defs>
<clipPath id="clip0_515_1033">
<rect width="180" height="180" fill="white"/>
</clipPath>
</defs>
</svg>
