<svg width="180" height="180" viewBox="0 0 180 180" fill="none" xmlns="http://www.w3.org/2000/svg">
<g clip-path="url(#clip0_515_995)">
<path d="M180 90C180 139.706 139.706 180 90 180C40.2944 180 0 139.706 0 90C0 40.2944 40.2944 0 90 0C139.706 0 180 40.2944 180 90Z" fill="white"/>
<path d="M31.2046 110.694H126.679V131.388C126.679 135.544 123.31 138.913 119.154 138.913H38.7297C34.5737 138.913 31.2046 135.544 31.2046 131.388V110.694Z" fill="#2EA950"/>
<path d="M126.679 90L126.679 131.388C126.679 135.544 123.31 138.913 119.154 138.913H98.46L98.46 90L126.679 90Z" fill="#2EA950"/>
<path d="M119.154 41.0869C123.31 41.0869 126.679 44.456 126.679 48.612L126.679 90H98.46L98.46 41.0869L119.154 41.0869Z" fill="#FEBC03"/>
<path fill-rule="evenodd" clip-rule="evenodd" d="M59.4237 138.913V41.0869L31.2046 69.306V131.388C31.2046 135.544 34.5737 138.913 38.7297 138.913H59.4237Z" fill="#4081F7"/>
<path fill-rule="evenodd" clip-rule="evenodd" d="M31.2046 69.306H126.679V48.612C126.679 44.456 123.31 41.0869 119.154 41.0869L59.4237 41.0869L31.2046 69.306Z" fill="#FEBC03"/>
<path fill-rule="evenodd" clip-rule="evenodd" d="M59.4237 69.306L59.4237 41.0869L31.2046 69.306H59.4237Z" fill="#EE402F"/>
<path d="M99.2071 91.4731C98.2233 90.7285 98.2106 89.2544 99.1814 88.4929L142.44 54.5606C144.91 52.6237 148.525 54.3828 148.525 57.521V121.235C148.525 124.343 144.97 126.11 142.492 124.235L99.2071 91.4731Z" fill="#2EA950"/>
<path d="M98.9556 90.8735C98.2271 90.3112 98.2232 89.2133 98.9476 88.6458L126.679 66.9231V112.272L98.9556 90.8735Z" fill="#0D8136"/>
</g>
<defs>
<clipPath id="clip0_515_995">
<rect width="180" height="180" fill="white"/>
</clipPath>
</defs>
</svg>
