<svg width="180" height="180" viewBox="0 0 180 180" fill="none" xmlns="http://www.w3.org/2000/svg">
<g clip-path="url(#clip0_515_905)">
<path d="M180 90C180 139.706 139.706 180 90 180C40.2944 180 0 139.706 0 90C0 40.2944 40.2944 0 90 0C139.706 0 180 40.2944 180 90Z" fill="white"/>
<path d="M100.854 97.46C100.854 100.259 99.7887 102.581 97.6575 104.426C95.4944 106.303 92.8701 107.241 89.7846 107.241C86.6991 107.241 84.0748 106.303 81.9117 104.426C79.7805 102.581 78.7148 100.259 78.7148 97.46C78.7148 95.7423 79.1761 94.1836 80.0986 92.784C81.021 91.3526 82.3411 90.2233 84.0589 89.3963V89.2054C82.7865 88.3784 81.7527 87.3605 80.9574 86.1517C80.194 84.9429 79.8123 83.6705 79.8123 82.3345C79.8123 79.6943 80.7507 77.4836 82.6274 75.7022C84.4724 73.9527 86.8581 73.0779 89.7846 73.0779C92.7111 73.0779 95.0968 73.9527 96.9417 75.7022C98.8185 77.4836 99.7569 79.6943 99.7569 82.3345C99.7569 83.6705 99.3593 84.9429 98.564 86.1517C97.8006 87.3605 96.7827 88.3784 95.5103 89.2054V89.3963C97.228 90.2233 98.5481 91.3526 99.4706 92.784C100.393 94.1836 100.854 95.7423 100.854 97.46ZM84.2974 82.2391C84.2974 83.766 84.8064 85.0065 85.8243 85.9608C86.8422 86.8833 88.1623 87.3446 89.7846 87.3446C91.4069 87.3446 92.727 86.8833 93.7449 85.9608C94.7628 85.0065 95.2717 83.766 95.2717 82.2391C95.2717 80.7122 94.7628 79.5035 93.7449 78.6128C92.727 77.7221 91.4069 77.2768 89.7846 77.2768C88.1623 77.2768 86.8422 77.7221 85.8243 78.6128C84.8064 79.5035 84.2974 80.7122 84.2974 82.2391ZM83.2 97.2214C83.2 98.0803 83.359 98.8596 83.6771 99.5594C84.027 100.259 84.4883 100.88 85.0609 101.42C85.6652 101.929 86.3651 102.327 87.1603 102.613C87.9555 102.899 88.8303 103.043 89.7846 103.043C90.7389 103.043 91.6136 102.899 92.4089 102.613C93.2041 102.327 93.888 101.929 94.4606 101.42C95.065 100.88 95.5262 100.259 95.8443 99.5594C96.1942 98.8596 96.3692 98.0803 96.3692 97.2214C96.3692 95.5673 95.733 94.1995 94.4606 93.118C93.1882 92.0047 91.6295 91.448 89.7846 91.448C87.9396 91.448 86.3651 92.0047 85.0609 93.118C83.8203 94.2313 83.2 95.5991 83.2 97.2214Z" fill="#4081F7"/>
<path fill-rule="evenodd" clip-rule="evenodd" d="M37.377 134.615C37.377 138.766 40.742 142.131 44.8929 142.131H60.8644V60.8645H142.131V44.8931C142.131 40.7421 138.766 37.3771 134.615 37.3771H44.8929C40.742 37.3771 37.377 40.7421 37.377 44.8931V134.615Z" fill="#4081F7"/>
<path fill-rule="evenodd" clip-rule="evenodd" d="M118.644 142.131L142.131 118.644L142.131 44.8931C142.131 40.7421 138.766 37.3771 134.615 37.3771H118.644V142.131Z" fill="#FEBC03"/>
<path fill-rule="evenodd" clip-rule="evenodd" d="M37.377 134.615V118.644H142.131L118.644 142.131L44.8929 142.131C40.742 142.131 37.377 138.766 37.377 134.615Z" fill="#2EA950"/>
<path fill-rule="evenodd" clip-rule="evenodd" d="M60.8644 118.644H44.8929H37.377V134.615C37.377 138.766 40.742 142.131 44.8929 142.131H60.8644V134.615V118.644Z" fill="#0D8136"/>
<path fill-rule="evenodd" clip-rule="evenodd" d="M118.644 142.131V134.615V118.644H134.615C141.427 118.644 142.131 118.644 142.131 118.644L118.644 142.131Z" fill="#EE402F"/>
<path fill-rule="evenodd" clip-rule="evenodd" d="M118.644 37.3771V44.8931V60.8645H134.615H142.131V44.8931C142.131 40.7421 138.766 37.3771 134.615 37.3771H118.644Z" fill="#0F65D5"/>
</g>
<defs>
<clipPath id="clip0_515_905">
<rect width="180" height="180" fill="white"/>
</clipPath>
</defs>
</svg>
