<svg width="180" height="180" viewBox="0 0 180 180" fill="none" xmlns="http://www.w3.org/2000/svg">
<g clip-path="url(#clip0_515_1162)">
<path d="M180 90C180 139.706 139.706 180 90 180C40.2944 180 0 139.706 0 90C0 40.2944 40.2944 0 90 0C139.706 0 180 40.2944 180 90Z" fill="white"/>
<path d="M140.455 79.6385C148.237 84.1897 148.237 95.4362 140.455 99.9875L62.7752 145.42C54.3561 150.344 43.7705 144.272 43.7705 134.519L43.7705 45.1069C43.7705 35.3536 54.3562 29.2816 62.7752 34.2057L140.455 79.6385Z" fill="#2EA950"/>
<mask id="mask0_515_1162" style="mask-type:alpha" maskUnits="userSpaceOnUse" x="43" y="32" width="104" height="116">
<path d="M140.455 79.6385C148.237 84.1897 148.237 95.4362 140.455 99.9875L62.7752 145.42C54.3561 150.344 43.7705 144.272 43.7705 134.519L43.7705 45.1069C43.7705 35.3536 54.3562 29.2816 62.7752 34.2057L140.455 79.6385Z" fill="#2EA950"/>
</mask>
<g mask="url(#mask0_515_1162)">
<path d="M113.361 115.82L43.7705 55.5737V134.67C43.7705 144.582 54.5611 150.725 63.0847 145.665L113.361 115.82Z" fill="#EE402F"/>
<path d="M85.8197 91.9672L43.7705 47.459V135.246L85.8197 91.9672Z" fill="#4081F7"/>
<path fill-rule="evenodd" clip-rule="evenodd" d="M85.5737 91.9671L113.361 115.82L140.19 100.447C148.443 95.7185 148.431 83.8108 140.168 79.0989L113.115 63.6716L85.5737 91.9671Z" fill="#FEBC03"/>
<path fill-rule="evenodd" clip-rule="evenodd" d="M85.7205 91.8909L113.361 115.82L98.5652 124.603C89.627 127.371 72.6722 114.757 72.2952 105.72L85.7205 91.8909Z" fill="#EE402F"/>
</g>
</g>
<defs>
<clipPath id="clip0_515_1162">
<rect width="180" height="180" fill="white"/>
</clipPath>
</defs>
</svg>
