<svg width="180" height="180" viewBox="0 0 180 180" fill="none" xmlns="http://www.w3.org/2000/svg">
<g clip-path="url(#clip0_515_1131)">
<path d="M180 90C180 139.706 139.706 180 90 180C40.2944 180 0 139.706 0 90C0 40.2944 40.2944 0 90 0C139.706 0 180 40.2944 180 90Z" fill="white"/>
<path d="M146.849 79.6385C154.63 84.1897 154.63 95.4362 146.849 99.9875L69.1685 145.42C60.7494 150.344 50.1638 144.272 50.1638 134.519L50.1638 45.1069C50.1638 35.3536 60.7495 29.2816 69.1685 34.2057L146.849 79.6385Z" fill="#0D8136"/>
<path d="M86.998 66.0287H50.1638V113.597H74.0869C74.5369 113.597 74.9682 113.778 75.2845 114.098L92.681 131.699L111.835 120.543L105.731 85.6035C104.384 70.7856 92.681 66.3795 86.998 66.0287Z" fill="#92FFD8"/>
<circle cx="74.5796" cy="78.6579" r="6.31444" fill="#0D8136"/>
<circle cx="74.5796" cy="101.39" r="6.31444" fill="#0D8136"/>
<circle cx="63.2136" cy="90.0242" r="6.31444" transform="rotate(-90 63.2136 90.0242)" fill="#0D8136"/>
<circle cx="85.9453" cy="90.0242" r="6.31444" transform="rotate(-90 85.9453 90.0242)" fill="#0D8136"/>
</g>
<defs>
<clipPath id="clip0_515_1131">
<rect width="180" height="180" fill="white"/>
</clipPath>
</defs>
</svg>
