<svg width="180" height="180" viewBox="0 0 180 180" fill="none" xmlns="http://www.w3.org/2000/svg">
<g clip-path="url(#clip0_515_987)">
<path d="M180 90C180 139.706 139.706 180 90 180C40.2944 180 0 139.706 0 90C0 40.2944 40.2944 0 90 0C139.706 0 180 40.2944 180 90Z" fill="white"/>
<path d="M36.8853 126.542C36.8853 123.22 39.5787 120.526 42.9011 120.526H136.577C139.9 120.526 142.593 123.22 142.593 126.542V138.574C142.593 141.896 139.9 144.59 136.577 144.59H42.9011C39.5787 144.59 36.8853 141.896 36.8853 138.574V126.542Z" fill="#2EA950"/>
<path d="M118.529 144.59L118.529 88.2984C118.529 84.9759 121.223 82.2825 124.545 82.2825L136.577 82.2825C139.899 82.2825 142.593 84.9759 142.593 88.2984L142.593 138.574C142.593 141.896 139.899 144.59 136.577 144.59H118.529Z" fill="#4081F7"/>
<path d="M118.96 95.4305L73.0227 49.4935L85.7843 36.7319C88.1337 34.3825 91.9427 34.3825 94.2921 36.7319L141.188 83.6281C141.859 84.2986 142.338 85.0879 142.626 85.9283C142.883 86.5974 143.023 87.324 143.023 88.0835V138.359C143.023 141.682 140.33 144.375 137.007 144.375H118.96L118.96 95.4305Z" fill="#4081F7"/>
<path d="M60.9488 95.4864L60.9488 144.59H42.9011C39.5787 144.59 36.8853 141.897 36.8853 138.574L36.8853 88.2986C36.8853 87.6013 37.0039 86.9317 37.2221 86.3089C37.4871 85.327 38.005 84.3992 38.7757 83.6285L85.672 36.7322C88.0213 34.3829 91.8304 34.3829 94.1797 36.7322L106.941 49.4939L60.9488 95.4864Z" fill="#EE402F"/>
<path d="M42.9011 144.59C39.5787 144.59 36.8853 141.896 36.8853 138.574V119.505L60.9488 95.4879V144.59H42.9011Z" fill="#FEBC03"/>
</g>
<defs>
<clipPath id="clip0_515_987">
<rect width="180" height="180" fill="white"/>
</clipPath>
</defs>
</svg>
