<svg width="180" height="180" viewBox="0 0 180 180" fill="none" xmlns="http://www.w3.org/2000/svg">
<g clip-path="url(#clip0_515_964)">
<path d="M180 90C180 139.706 139.706 180 90 180C40.2944 180 0 139.706 0 90C0 40.2944 40.2944 0 90 0C139.706 0 180 40.2944 180 90Z" fill="white"/>
<path d="M32.106 68.6711C32.106 59.2279 42.743 53.7002 50.4707 59.1276L58.7622 64.9509V133.279H39.603C35.4625 133.279 32.106 129.922 32.106 125.782V68.6711Z" fill="#4081F7"/>
<path d="M147.894 69.6848C147.894 60.0507 136.874 54.5716 129.193 60.3866L121.238 66.4088V133.279H140.397C144.537 133.279 147.894 129.922 147.894 125.782V69.6848Z" fill="#2EA950"/>
<path d="M82.6178 83.2678C77.4845 87.148 76.464 94.4528 80.3376 99.5912L89.779 112.116L138.017 75.6945L138.017 65.6632C138.017 55.689 126.612 50.0132 118.655 56.0277L82.6178 83.2678Z" fill="#EE402F"/>
<path fill-rule="evenodd" clip-rule="evenodd" d="M121.238 54.0757V88.3634L147.894 68.237V57.8916C147.894 51.4508 142.673 46.2295 136.232 46.2295H133.136C131.645 46.6173 130.203 47.2987 128.898 48.2856L121.238 54.0757Z" fill="#FEBC03"/>
<path d="M97.006 83.2514C102.149 87.1391 103.162 94.4624 99.2671 99.6001L89.7787 112.116L41.4595 75.572L41.4772 65.5275C41.4948 55.5631 52.8902 49.9047 60.8392 55.9133L97.006 83.2514Z" fill="#EE402F"/>
<path fill-rule="evenodd" clip-rule="evenodd" d="M45.2694 46.2295C47.3388 46.4685 49.3735 47.2463 51.1555 48.5934L58.7622 54.3431V88.6652L32.106 68.5116V57.8916C32.106 51.4508 37.3273 46.2295 43.7681 46.2295H45.2694Z" fill="#C81F14"/>
</g>
<defs>
<clipPath id="clip0_515_964">
<rect width="180" height="180" fill="white"/>
</clipPath>
</defs>
</svg>
