<svg width="180" height="180" viewBox="0 0 180 180" fill="none" xmlns="http://www.w3.org/2000/svg">
<g clip-path="url(#clip0_515_948)">
<path d="M180 90C180 139.706 139.706 180 90 180C40.2944 180 0 139.706 0 90C0 40.2944 40.2944 0 90 0C139.706 0 180 40.2944 180 90Z" fill="white"/>
<path fill-rule="evenodd" clip-rule="evenodd" d="M103.11 31.4755L132.606 60.9719V140.097C132.606 144.752 128.833 148.525 124.179 148.525H55.8218C51.1674 148.525 47.3943 144.752 47.3943 140.097V39.903C47.3943 35.2486 51.1674 31.4755 55.8218 31.4755L103.11 31.4755Z" fill="#4081F7"/>
<path d="M103.11 31.4756L132.606 60.972H103.11L103.11 31.4756Z" fill="#0F65D5"/>
<rect x="66.1223" y="76.8907" width="47.7561" height="6.55475" fill="white"/>
<rect x="66.1223" y="92.8092" width="47.7561" height="6.55475" fill="white"/>
<rect x="66.1223" y="108.728" width="34.6466" height="6.55475" fill="white"/>
</g>
<defs>
<clipPath id="clip0_515_948">
<rect width="180" height="180" fill="white"/>
</clipPath>
</defs>
</svg>
