<svg width="180" height="180" viewBox="0 0 180 180" fill="none" xmlns="http://www.w3.org/2000/svg">
<g clip-path="url(#clip0_515_1059)">
<path d="M180 90C180 139.706 139.706 180 90 180C40.2944 180 0 139.706 0 90C0 40.2944 40.2944 0 90 0C139.706 0 180 40.2944 180 90Z" fill="#EE402F"/>
<path d="M7.8689 90C7.8689 87.5554 9.85059 85.5737 12.2951 85.5737C14.7397 85.5737 16.7214 87.5554 16.7214 90C16.7214 92.4445 14.7397 94.4262 12.2951 94.4262C9.85059 94.4262 7.8689 92.4445 7.8689 90Z" fill="white"/>
<path d="M147.295 90C147.295 87.5554 149.277 85.5737 151.721 85.5737C154.166 85.5737 156.148 87.5554 156.148 90C156.148 92.4445 154.166 94.4262 151.721 94.4262C149.277 94.4262 147.295 92.4445 147.295 90Z" fill="white"/>
<path d="M23.3606 90C23.3606 87.5554 25.3423 85.5737 27.7868 85.5737C30.2314 85.5737 32.2131 87.5554 32.2131 90C32.2131 92.4445 30.2314 94.4262 27.7868 94.4262C25.3423 94.4262 23.3606 92.4445 23.3606 90Z" fill="white"/>
<path d="M162.787 90C162.787 87.5554 164.769 85.5737 167.213 85.5737C169.658 85.5737 171.639 87.5554 171.639 90C171.639 92.4445 169.658 94.4262 167.213 94.4262C164.769 94.4262 162.787 92.4445 162.787 90Z" fill="white"/>
<path d="M38.8525 79.6721C38.8525 77.2275 40.8342 75.2458 43.2788 75.2458C45.7233 75.2458 47.705 77.2275 47.705 79.6721V100.328C47.705 102.772 45.7233 104.754 43.2788 104.754C40.8342 104.754 38.8525 102.772 38.8525 100.328V79.6721Z" fill="white"/>
<path d="M100.82 79.6721C100.82 77.2275 102.801 75.2458 105.246 75.2458C107.69 75.2458 109.672 77.2275 109.672 79.6721V100.328C109.672 102.772 107.69 104.754 105.246 104.754C102.801 104.754 100.82 102.772 100.82 100.328V79.6721Z" fill="white"/>
<path d="M131.803 79.6721C131.803 77.2275 133.785 75.2458 136.229 75.2458C138.674 75.2458 140.656 77.2275 140.656 79.6721V100.328C140.656 102.772 138.674 104.754 136.229 104.754C133.785 104.754 131.803 102.772 131.803 100.328V79.6721Z" fill="white"/>
<path d="M54.3442 60C54.3442 57.5554 56.3259 55.5737 58.7705 55.5737C61.215 55.5737 63.1967 57.5554 63.1967 60V120C63.1967 122.445 61.215 124.426 58.7705 124.426C56.3259 124.426 54.3442 122.445 54.3442 120V60Z" fill="white"/>
<path d="M116.312 60C116.312 57.5554 118.293 55.5737 120.738 55.5737C123.182 55.5737 125.164 57.5554 125.164 60V120C125.164 122.445 123.182 124.426 120.738 124.426C118.293 124.426 116.312 122.445 116.312 120V60Z" fill="white"/>
<path d="M85.3279 60C85.3279 57.5554 87.3096 55.5737 89.7541 55.5737C92.1986 55.5737 94.1803 57.5554 94.1803 60V120C94.1803 122.445 92.1986 124.426 89.7541 124.426C87.3096 124.426 85.3279 122.445 85.3279 120V60Z" fill="white"/>
<path d="M69.8362 35.4099C69.8362 32.9653 71.8179 30.9836 74.2624 30.9836C76.707 30.9836 78.6886 32.9653 78.6886 35.4099V144.59C78.6886 147.035 76.707 149.016 74.2624 149.016C71.8179 149.016 69.8362 147.035 69.8362 144.59V35.4099Z" fill="white"/>
</g>
<defs>
<clipPath id="clip0_515_1059">
<rect width="180" height="180" fill="white"/>
</clipPath>
</defs>
</svg>
