<svg width="180" height="180" viewBox="0 0 180 180" fill="none" xmlns="http://www.w3.org/2000/svg">
<g clip-path="url(#clip0_515_1007)">
<path d="M180 90C180 139.706 139.706 180 90 180C40.2944 180 0 139.706 0 90C0 40.2944 40.2944 0 90 0C139.706 0 180 40.2944 180 90Z" fill="white"/>
<path d="M30.9836 74.5082C30.9836 54.9518 46.8372 38.8524 66.3935 38.8524H103.771C123.327 38.8524 139.18 54.9518 139.18 74.5082C139.18 94.0645 123.327 110.164 103.771 110.164H66.3935C46.8372 110.164 30.9836 94.0645 30.9836 74.5082Z" fill="#84AAFF"/>
<path fill-rule="evenodd" clip-rule="evenodd" d="M76.2294 55.5736C56.6731 55.5736 40.8196 71.673 40.8196 91.2293C40.8196 101.644 45.316 111.079 52.4734 117.623L88.4052 153.085C88.7968 153.472 89.3248 153.688 89.8749 153.688C91.0304 153.688 91.9671 152.752 91.9671 151.596V126.885H113.606C133.163 126.885 149.016 110.786 149.016 91.2293C149.016 71.673 133.163 55.5736 113.606 55.5736H76.2294Z" fill="#5A8EFE"/>
<path fill-rule="evenodd" clip-rule="evenodd" d="M138.015 65.447C138.775 68.3446 139.18 71.3822 139.18 74.508C139.18 94.0644 123.327 110.164 103.77 110.164H66.3933C56.9319 110.164 48.3371 106.395 41.9851 100.29C41.2246 97.3928 40.8196 94.3552 40.8196 91.2293C40.8196 71.673 56.6731 55.5736 76.2294 55.5736H113.606C123.068 55.5736 131.663 59.342 138.015 65.447Z" fill="#0059CF"/>
</g>
<defs>
<clipPath id="clip0_515_1007">
<rect width="180" height="180" fill="white"/>
</clipPath>
</defs>
</svg>
