<svg width="180" height="180" viewBox="0 0 180 180" fill="none" xmlns="http://www.w3.org/2000/svg">
<g clip-path="url(#clip0_515_1141)">
<path d="M180 90C180 139.706 139.706 180 90 180C40.2944 180 0 139.706 0 90C0 40.2944 40.2944 0 90 0C139.706 0 180 40.2944 180 90Z" fill="white"/>
<path fill-rule="evenodd" clip-rule="evenodd" d="M103.11 31.4753L132.606 60.9717V140.097C132.606 144.751 128.833 148.525 124.179 148.525H55.8218C51.1674 148.525 47.3943 144.751 47.3943 140.097V39.9029C47.3943 35.2485 51.1674 31.4753 55.8218 31.4753L103.11 31.4753Z" fill="#7444B4"/>
<path d="M103.11 31.4753L132.606 60.9717H103.11L103.11 31.4753Z" fill="#573488"/>
<path fill-rule="evenodd" clip-rule="evenodd" d="M71.501 98.247C73.7783 98.247 75.6245 96.4009 75.6245 94.1235C75.6245 91.8462 73.7783 90 71.501 90C69.2236 90 67.3774 91.8462 67.3774 94.1235C67.3774 96.4009 69.2236 98.247 71.501 98.247ZM112.736 91.3746H82.4971V96.8726H112.736V91.3746ZM112.736 105.119H82.4971V110.617H112.736V105.119ZM82.4971 118.865H112.736V124.363H82.4971V118.865ZM75.6246 107.869C75.6246 110.146 73.7784 111.992 71.5011 111.992C69.2237 111.992 67.3775 110.146 67.3775 107.869C67.3775 105.591 69.2237 103.745 71.5011 103.745C73.7784 103.745 75.6246 105.591 75.6246 107.869ZM71.5011 125.738C73.7784 125.738 75.6246 123.891 75.6246 121.614C75.6246 119.337 73.7784 117.491 71.5011 117.491C69.2237 117.491 67.3775 119.337 67.3775 121.614C67.3775 123.891 69.2237 125.738 71.5011 125.738Z" fill="white"/>
</g>
<defs>
<clipPath id="clip0_515_1141">
<rect width="180" height="180" fill="white"/>
</clipPath>
</defs>
</svg>
