<svg width="180" height="180" viewBox="0 0 180 180" fill="none" xmlns="http://www.w3.org/2000/svg">
<g clip-path="url(#clip0_515_915)">
<path d="M180 90C180 139.706 139.706 180 90 180C40.2944 180 0 139.706 0 90C0 40.2944 40.2944 0 90 0C139.706 0 180 40.2944 180 90Z" fill="white"/>
<path fill-rule="evenodd" clip-rule="evenodd" d="M30.4917 75.4918V127.869C30.4917 133.301 34.8955 137.705 40.3278 137.705H139.18C144.613 137.705 149.016 133.301 149.016 127.869V75.4918H30.4917Z" fill="#454648"/>
<path d="M62.8983 46.3394L73.4277 34.1254C73.8014 33.6919 74.3454 33.4426 74.9177 33.4426H106.557C107.13 33.4426 107.674 33.6919 108.047 34.1254L118.577 46.3394C119.324 47.2064 120.412 47.7049 121.557 47.7049H139.18C144.613 47.7049 149.016 52.1087 149.016 57.541V75.4918H30.4917V57.541C30.4917 52.1087 34.8955 47.7049 40.3278 47.7049H59.9184C61.063 47.7049 62.151 47.2064 62.8983 46.3394Z" fill="#5C6167"/>
<circle cx="136.721" cy="62.459" r="5.40984" fill="white"/>
<circle cx="89.9999" cy="94.4263" r="31.9672" fill="white"/>
<circle cx="89.9999" cy="94.4262" r="26.0656" fill="#4081F7"/>
</g>
<defs>
<clipPath id="clip0_515_915">
<rect width="180" height="180" fill="white"/>
</clipPath>
</defs>
</svg>
