<svg width="180" height="180" viewBox="0 0 180 180" fill="none" xmlns="http://www.w3.org/2000/svg">
<g clip-path="url(#clip0_515_1047)">
<path d="M180 90C180 139.706 139.706 180 90 180C40.2944 180 0 139.706 0 90C0 40.2944 40.2944 0 90 0C139.706 0 180 40.2944 180 90Z" fill="white"/>
<path d="M26.5574 85.3278C26.5574 80.982 30.0804 77.459 34.4262 77.459H34.918C39.2639 77.459 42.7869 80.982 42.7869 85.3278V94.1803C42.7869 98.5261 39.2639 102.049 34.918 102.049H34.4262C30.0804 102.049 26.5574 98.5261 26.5574 94.1803V85.3278Z" fill="#0F65D5"/>
<path d="M137.213 85.3278C137.213 80.982 140.736 77.459 145.082 77.459H145.574C149.92 77.459 153.443 80.982 153.443 85.3278V94.1803C153.443 98.5261 149.92 102.049 145.574 102.049H145.082C140.736 102.049 137.213 98.5261 137.213 94.1803V85.3278Z" fill="#4081F7"/>
<path d="M54.0984 59.2623C54.0984 54.9164 57.6214 51.3934 61.9672 51.3934H62.459C66.8049 51.3934 70.3279 54.9164 70.3279 59.2623V87.7869C70.3279 92.1327 66.8049 95.6557 62.459 95.6557H61.9672C57.6214 95.6557 54.0984 92.1327 54.0984 87.7869V59.2623Z" fill="#EE402F"/>
<path d="M109.672 91.2294C109.672 86.8836 113.195 83.3606 117.541 83.3606H118.033C122.379 83.3606 125.902 86.8836 125.902 91.2294V119.754C125.902 124.1 122.379 127.623 118.033 127.623H117.541C113.195 127.623 109.672 124.1 109.672 119.754V91.2294Z" fill="#2EA950"/>
<path d="M81.8853 66.6394C81.8853 62.2935 85.4083 58.7705 89.7541 58.7705H90.2459C94.5918 58.7705 98.1148 62.2935 98.1148 66.6394V112.869C98.1148 117.215 94.5918 120.738 90.2459 120.738H89.7541C85.4083 120.738 81.8853 117.215 81.8853 112.869V66.6394Z" fill="#FEBC03"/>
<path d="M54.0984 110.902C54.0984 106.556 57.6214 103.033 61.9672 103.033H62.459C66.8049 103.033 70.3279 106.556 70.3279 110.902V119.754C70.3279 124.1 66.8049 127.623 62.459 127.623H61.9672C57.6214 127.623 54.0984 124.1 54.0984 119.754V110.902Z" fill="#EE402F"/>
<path d="M109.426 59.2623C109.426 54.9164 112.949 51.3934 117.295 51.3934H117.787C122.133 51.3934 125.656 54.9164 125.656 59.2623V68.1147C125.656 72.4606 122.133 75.9836 117.787 75.9836H117.295C112.949 75.9836 109.426 72.4606 109.426 68.1147V59.2623Z" fill="#2EA950"/>
<path d="M81.6394 136.229C81.6394 131.884 85.1624 128.361 89.5083 128.361H90.0001C94.3459 128.361 97.8689 131.884 97.8689 136.229V145.082C97.8689 149.428 94.3459 152.951 90.0001 152.951H89.5083C85.1624 152.951 81.6394 149.428 81.6394 145.082V136.229Z" fill="#FEBC03"/>
<path d="M81.6394 34.4262C81.6394 30.0804 85.1624 26.5574 89.5083 26.5574H90.0001C94.3459 26.5574 97.8689 30.0804 97.8689 34.4262V43.2787C97.8689 47.6245 94.3459 51.1475 90.0001 51.1475H89.5083C85.1624 51.1475 81.6394 47.6245 81.6394 43.2787V34.4262Z" fill="#FEBC03"/>
</g>
<defs>
<clipPath id="clip0_515_1047">
<rect width="180" height="180" fill="white"/>
</clipPath>
</defs>
</svg>
