<svg width="180" height="180" viewBox="0 0 180 180" fill="none" xmlns="http://www.w3.org/2000/svg">
<g clip-path="url(#clip0_515_1119)">
<path d="M180 90C180 139.706 139.706 180 90 180C40.2944 180 0 139.706 0 90C0 40.2944 40.2944 0 90 0C139.706 0 180 40.2944 180 90Z" fill="white"/>
<path d="M72.2417 81.4084H137.179C141.514 81.4084 145.029 84.909 145.029 89.2272V141.115C145.029 145.433 141.514 148.934 137.179 148.934H72.2417V81.4084Z" fill="#DEDEDE"/>
<path d="M72.4613 30.9836C60.0518 37.6254 35.2683 58.6299 35.4108 89.514C35.5533 120.398 58.0324 140.75 72.4613 148.934V30.9836Z" fill="#0A552A"/>
<path d="M72.4613 30.9836C84.8709 37.6254 109.655 58.6299 109.512 89.514C109.37 120.398 87.7797 142.173 72.4613 148.934V30.9836Z" fill="#8CC24A"/>
<mask id="mask0_515_1119" style="mask-type:alpha" maskUnits="userSpaceOnUse" x="35" y="30" width="75" height="119">
<path d="M72.4618 30.9836C60.0523 37.6254 35.2688 58.6299 35.4113 89.514C35.5538 120.398 58.0329 140.75 72.4618 148.934V30.9836Z" fill="#0A552A"/>
<path d="M72.4618 30.9836C84.8714 37.6254 109.655 58.6299 109.513 89.514C109.37 120.398 87.7802 142.173 72.4618 148.934V30.9836Z" fill="#8CC24A"/>
</mask>
<g mask="url(#mask0_515_1119)">
<path d="M54.2654 45.0146V63.4307H40.2341L46.8113 53.3457L54.2654 45.0146Z" fill="#D9D9D9"/>
<path d="M72.463 30.9836C63.2843 35.9217 22.4763 74.5006 22.4763 74.5006C22.4763 74.5006 61.7907 112.594 72.463 118.679V30.9836Z" fill="#0C8043"/>
<path d="M72.463 30.9836C81.6417 35.9217 121.134 74.5006 121.134 74.5006C121.134 74.5006 83.7931 113.653 72.463 118.679V30.9836Z" fill="#AFD781"/>
<path d="M72.4621 30.9836C67.6892 33.6008 38.2612 48.5227 38.2612 48.5227C38.2612 48.5227 66.9125 75.9913 72.4621 79.2161V30.9836Z" fill="#31AD71"/>
<path d="M72.4621 30.9836C77.235 33.6008 110.829 48.5227 110.829 48.5227C110.829 48.5227 78.3538 76.5521 72.4621 79.2161V30.9836Z" fill="#B2FF59"/>
</g>
<path d="M54.484 45.0146V63.4307H41.4541C45.8389 53.5649 54.484 45.0146 54.484 45.0146Z" fill="white"/>
</g>
<defs>
<clipPath id="clip0_515_1119">
<rect width="180" height="180" fill="white"/>
</clipPath>
</defs>
</svg>
