<svg width="180" height="180" viewBox="0 0 180 180" fill="none" xmlns="http://www.w3.org/2000/svg">
<g clip-path="url(#clip0_515_1040)">
<path d="M180 90C180 139.706 139.706 180 90 180C40.2944 180 0 139.706 0 90C0 40.2944 40.2944 0 90 0C139.706 0 180 40.2944 180 90Z" fill="#4081F7"/>
<path d="M67.1294 122.654H113.778V142.247C113.778 144.308 112.108 145.979 110.046 145.979H70.8613C68.8002 145.979 67.1294 144.308 67.1294 142.247V122.654Z" fill="url(#paint0_linear_515_1040)"/>
<path fill-rule="evenodd" clip-rule="evenodd" d="M113.778 104.527C125.043 96.843 132.438 83.9057 132.438 69.2412C132.438 45.6676 113.328 26.5574 89.7539 26.5574C66.1803 26.5574 47.0701 45.6676 47.0701 69.2412C47.0701 84.5047 55.0817 97.897 67.1291 105.442V122.654H113.778V104.527Z" fill="white"/>
<path d="M77.8589 145.979H103.049V149.711C103.049 151.772 101.379 153.442 99.3174 153.442H81.5908C79.5297 153.442 77.8589 151.772 77.8589 149.711V145.979Z" fill="#2EA950"/>
<path d="M85.8356 122.888V91.7428H71.561V84.0999H108.171V91.7428H93.8966V122.888H85.8356Z" fill="#FEBC03"/>
</g>
<defs>
<linearGradient id="paint0_linear_515_1040" x1="67.1294" y1="122.654" x2="88.4411" y2="160.316" gradientUnits="userSpaceOnUse">
<stop offset="0.307292" stop-color="#FEBC03"/>
<stop offset="0.307392" stop-color="#2EA950"/>
</linearGradient>
<clipPath id="clip0_515_1040">
<rect width="180" height="180" fill="white"/>
</clipPath>
</defs>
</svg>
