<svg width="180" height="180" viewBox="0 0 180 180" fill="none" xmlns="http://www.w3.org/2000/svg">
<g clip-path="url(#clip0_515_973)">
<path d="M180 90C180 139.706 139.706 180 90 180C40.2944 180 0 139.706 0 90C0 40.2944 40.2944 0 90 0C139.706 0 180 40.2944 180 90Z" fill="white"/>
<g clip-path="url(#clip1_515_973)">
<path d="M153.208 91.1632C153.208 85.9465 152.776 82.1397 151.841 78.1919H91.0554V101.738H126.735C126.016 107.589 122.132 116.401 113.499 122.323L133.929 137.832C146.158 126.764 153.208 110.479 153.208 91.1632Z" fill="#4081F7"/>
<path d="M91.0513 153.201C108.531 153.201 123.206 147.561 133.925 137.833L113.495 122.323C108.028 126.059 100.69 128.668 91.0513 128.668C73.9308 128.668 59.4 117.6 54.2201 102.302L33.2151 118.234C43.8614 138.96 65.7298 153.201 91.0513 153.201Z" fill="#2EA950"/>
<path d="M54.224 102.302C52.8572 98.3546 52.0662 94.1245 52.0662 89.7539C52.0662 85.3828 52.8572 81.1531 54.1521 77.2054L33.2189 61.2728C28.831 69.8736 26.3132 79.5318 26.3132 89.7539C26.3132 99.9759 28.831 109.634 33.2189 118.234L54.224 102.302Z" fill="#FEBC03"/>
<path d="M91.0517 50.8395C103.209 50.8395 111.409 55.9858 116.085 60.2864L134.357 42.8031C123.135 32.581 108.532 26.3068 91.0517 26.3068C65.73 26.3068 43.8615 40.547 33.2151 61.273L54.1483 77.2055C59.4001 61.9077 73.931 50.8395 91.0517 50.8395Z" fill="#EE402F"/>
</g>
</g>
<defs>
<clipPath id="clip0_515_973">
<rect width="180" height="180" fill="white"/>
</clipPath>
<clipPath id="clip1_515_973">
<rect width="127.377" height="127.377" fill="white" transform="translate(26.0657 26.0656)"/>
</clipPath>
</defs>
</svg>
