<svg width="180" height="180" viewBox="0 0 180 180" fill="none" xmlns="http://www.w3.org/2000/svg">
<g clip-path="url(#clip0_515_1153)">
<path d="M180 90C180 139.706 139.706 180 90 180C40.2944 180 0 139.706 0 90C0 40.2944 40.2944 0 90 0C139.706 0 180 40.2944 180 90Z" fill="white"/>
<path d="M33.6596 108.121C33.6391 109.942 34.0988 111.767 35.0386 113.4L47.6128 135.237C49.4545 138.435 52.8604 140.406 56.5465 140.406H123.454C127.14 140.406 130.546 138.435 132.388 135.237L144.962 113.4C145.902 111.767 146.362 109.942 146.341 108.121H33.6596Z" fill="#4081F7"/>
<path d="M128.657 138.997L72.2539 41.1355C73.825 40.197 75.6438 39.6775 77.5364 39.6775H102.471C106.155 39.6775 109.56 41.6466 111.402 44.843L144.963 103.072C146.805 106.267 146.806 110.204 144.965 113.399L132.391 135.237C131.478 136.822 130.182 138.105 128.657 138.997Z" fill="#FEBC03"/>
<path d="M107.75 41.1356C106.179 40.197 104.36 39.6775 102.468 39.6775H77.5333C73.8487 39.6775 70.4439 41.6466 68.6016 44.843L35.0407 103.072C33.1991 106.267 33.1983 110.204 35.0386 113.4L47.6128 135.237C48.5254 136.822 49.8221 138.105 51.3467 138.997L107.75 41.1356Z" fill="#2EA950"/>
<path d="M146.341 108.121C146.362 109.942 145.902 111.767 144.962 113.4L132.388 135.237C131.475 136.822 130.179 138.105 128.654 138.997L110.859 108.121H146.341Z" fill="#EE402F"/>
<path d="M107.753 41.1356C106.182 40.197 104.363 39.6775 102.471 39.6775H77.5364C75.6438 39.6775 73.825 40.197 72.2539 41.1355L90.0035 71.9316L107.753 41.1356Z" fill="#0D8136"/>
<path d="M33.6596 108.121C33.6391 109.942 34.0988 111.767 35.0386 113.4L47.6128 135.237C48.5254 136.822 49.8221 138.105 51.3467 138.997L69.1422 108.121H33.6596Z" fill="#0F65D5"/>
</g>
<defs>
<clipPath id="clip0_515_1153">
<rect width="180" height="180" fill="white"/>
</clipPath>
</defs>
</svg>
