<svg width="180" height="180" viewBox="0 0 180 180" fill="none" xmlns="http://www.w3.org/2000/svg">
<g clip-path="url(#clip0_515_1106)">
<path d="M180 90C180 139.706 139.706 180 90 180C40.2944 180 0 139.706 0 90C0 40.2944 40.2944 0 90 0C139.706 0 180 40.2944 180 90Z" fill="white"/>
<path fill-rule="evenodd" clip-rule="evenodd" d="M27.2025 60.8905C30.5047 57.7752 35.707 57.9268 38.8223 61.2289C50.5836 73.696 56.989 100.188 37.5876 118.861C34.3168 122.01 29.1132 121.91 25.9651 118.639C22.8169 115.369 22.9163 110.165 26.1871 107.017C37.3713 96.2521 34.2187 80.3062 26.8641 72.5102C23.7488 69.2081 23.9004 64.0057 27.2025 60.8905Z" fill="#2EA950"/>
<path fill-rule="evenodd" clip-rule="evenodd" d="M152.798 60.8905C149.496 57.7752 144.293 57.9268 141.178 61.2289C129.417 73.696 123.011 100.188 142.413 118.861C145.684 122.01 150.887 121.91 154.035 118.639C157.184 115.369 157.084 110.165 153.813 107.017C142.629 96.2521 145.782 80.3062 153.136 72.5102C156.252 69.2081 156.1 64.0057 152.798 60.8905Z" fill="#EE402F"/>
<path fill-rule="evenodd" clip-rule="evenodd" d="M50.3318 38.1248C53.6437 35.0199 58.8455 35.1877 61.9504 38.4996C83.0572 61.0133 94.1247 108.519 59.7807 141.783C56.5197 144.941 51.3158 144.858 48.1575 141.597C44.9991 138.336 45.0823 133.132 48.3432 129.974C74.5365 104.605 66.686 67.5876 49.957 49.7435C46.8521 46.4316 47.0199 41.2298 50.3318 38.1248Z" fill="#4081F7"/>
<path fill-rule="evenodd" clip-rule="evenodd" d="M129.668 38.1248C126.356 35.0199 121.155 35.1877 118.05 38.4996C96.9428 61.0133 85.8753 108.519 120.219 141.783C123.48 144.941 128.684 144.858 131.843 141.597C135.001 138.336 134.918 133.132 131.657 129.974C105.464 104.605 113.314 67.5876 130.043 49.7435C133.148 46.4316 132.98 41.2298 129.668 38.1248Z" fill="#FEBC03"/>
</g>
<defs>
<clipPath id="clip0_515_1106">
<rect width="180" height="180" fill="white"/>
</clipPath>
</defs>
</svg>
