<svg width="180" height="180" viewBox="0 0 180 180" fill="none" xmlns="http://www.w3.org/2000/svg">
<g clip-path="url(#clip0_515_957)">
<path d="M180 90C180 139.706 139.706 180 90 180C40.2944 180 0 139.706 0 90C0 40.2944 40.2944 0 90 0C139.706 0 180 40.2944 180 90Z" fill="white"/>
<path d="M31.4846 113.183L90.9049 54.2128H39.5874C35.1124 54.2128 31.4846 57.8405 31.4846 62.3155V113.183Z" fill="#2EA950"/>
<path fill-rule="evenodd" clip-rule="evenodd" d="M31.4846 102.154V128.713C31.4846 133.188 35.1124 136.816 39.5874 136.816H140.422C144.897 136.816 148.525 133.188 148.525 128.713V51.2868C148.525 46.8118 144.897 43.1841 140.422 43.1841H90.9049L31.4846 102.154Z" fill="#4081F7"/>
<path d="M90.9049 43.1841L31.4846 102.154H82.8022C87.2772 102.154 90.9049 98.5265 90.9049 94.0515V43.1841Z" fill="#EE402F"/>
<g filter="url(#filter0_d_515_957)">
<path d="M90.9042 43.1841L31.4802 102.154L72.2191 88.6034C75.3325 87.6859 77.3485 85.4672 78.6926 81.2836L90.9042 43.1841Z" fill="#FEBC03"/>
</g>
</g>
<defs>
<filter id="filter0_d_515_957" x="30.0048" y="42.2005" width="63.3585" height="62.9046" filterUnits="userSpaceOnUse" color-interpolation-filters="sRGB">
<feFlood flood-opacity="0" result="BackgroundImageFix"/>
<feColorMatrix in="SourceAlpha" type="matrix" values="0 0 0 0 0 0 0 0 0 0 0 0 0 0 0 0 0 0 127 0" result="hardAlpha"/>
<feOffset dx="0.491803" dy="0.983607"/>
<feGaussianBlur stdDeviation="0.983607"/>
<feComposite in2="hardAlpha" operator="out"/>
<feColorMatrix type="matrix" values="0 0 0 0 0 0 0 0 0 0 0 0 0 0 0 0 0 0 0.15 0"/>
<feBlend mode="normal" in2="BackgroundImageFix" result="effect1_dropShadow_515_957"/>
<feBlend mode="normal" in="SourceGraphic" in2="effect1_dropShadow_515_957" result="shape"/>
</filter>
<clipPath id="clip0_515_957">
<rect width="180" height="180" fill="white"/>
</clipPath>
</defs>
</svg>
